<svg width="30" height="39" viewBox="0 0 30 39" fill="none" xmlns="http://www.w3.org/2000/svg">
<path d="M20.9629 7.6747V0L29.999 8.6747H21.9629C21.4106 8.6747 20.9629 8.22698 20.9629 7.6747Z" fill="#2B356D"/>
<path fill-rule="evenodd" clip-rule="evenodd" d="M18.7949 0H5C2.23858 0 0 2.23858 0 5V33.3133C0 36.0747 2.23858 38.3133 5 38.3133H24.6386C27.4 38.3133 29.6386 36.0747 29.6386 33.3132V10.8431H20.7949C19.6904 10.8431 18.7949 9.94767 18.7949 8.8431V0Z" fill="#2B356D"/>
<path fill-rule="evenodd" clip-rule="evenodd" d="M4.53516 15.9043C4.53516 15.2139 5.0948 14.6543 5.78516 14.6543H23.496C24.1864 14.6543 24.746 15.2139 24.746 15.9043C24.746 16.5947 24.1864 17.1543 23.496 17.1543H5.78516C5.0948 17.1543 4.53516 16.5947 4.53516 15.9043Z" fill="white"/>
<path fill-rule="evenodd" clip-rule="evenodd" d="M4.53516 21.6875C4.53516 20.9971 5.0948 20.4375 5.78516 20.4375H23.496C24.1864 20.4375 24.746 20.9971 24.746 21.6875C24.746 22.3779 24.1864 22.9375 23.496 22.9375H5.78516C5.0948 22.9375 4.53516 22.3779 4.53516 21.6875Z" fill="white"/>
<path fill-rule="evenodd" clip-rule="evenodd" d="M4.53516 28.1935C4.53516 27.5031 5.0948 26.9435 5.78516 26.9435H13.0141C13.7044 26.9435 14.2641 27.5031 14.2641 28.1935C14.2641 28.8839 13.7044 29.4435 13.0141 29.4435H5.78516C5.0948 29.4435 4.53516 28.8839 4.53516 28.1935Z" fill="white"/>
</svg>
