<svg width="27" height="35" viewBox="0 0 27 35" fill="none" xmlns="http://www.w3.org/2000/svg">
<path d="M13.1241 21.1456C12.723 21.1456 12.3949 21.4723 12.3949 21.8748C12.3949 22.2773 12.723 22.6039 13.1241 22.6039C13.5251 22.6039 13.8533 22.2773 13.8533 21.8748C13.8533 21.4723 13.5251 21.1456 13.1241 21.1456Z" fill="white"/>
<path fill-rule="evenodd" clip-rule="evenodd" d="M22.9688 35H3.28125C1.47292 35 0 33.5285 0 31.7188V16.4062C0 14.5965 1.47292 13.125 3.28125 13.125H22.9688C24.7771 13.125 26.25 14.5965 26.25 16.4062V31.7188C26.25 33.5285 24.7771 35 22.9688 35ZM12.0312 24.5791C10.9627 24.1459 10.2074 23.0971 10.2074 21.8748C10.2074 20.2662 11.5155 18.9581 13.1241 18.9581C14.7326 18.9581 16.0408 20.2662 16.0408 21.8748C16.0408 23.0964 15.2863 24.1447 14.2188 24.5784V28.0729C14.2188 28.6767 13.7288 29.1667 13.125 29.1667C12.5213 29.1667 12.0312 28.6767 12.0312 28.0729V24.5791Z" fill="white"/>
<path d="M20.7812 15.3125C20.1775 15.3125 19.6875 14.8225 19.6875 14.2188V8.75C19.6875 5.13188 16.7431 2.1875 13.125 2.1875C9.50688 2.1875 6.5625 5.13188 6.5625 8.75V14.2188C6.5625 14.8225 6.0725 15.3125 5.46875 15.3125C4.865 15.3125 4.375 14.8225 4.375 14.2188V8.75C4.375 3.92438 8.29938 0 13.125 0C17.9506 0 21.875 3.92438 21.875 8.75V14.2188C21.875 14.8225 21.385 15.3125 20.7812 15.3125Z" fill="white"/>
</svg>
