<svg
  xmlns="http://www.w3.org/2000/svg"
  xmlns:xlink="http://www.w3.org/1999/xlink"
>
  <svg id="gear" viewBox="0 0 25 25">
    <path
      d="M13.2845 25H11.7155C10.4465 25 9.41401 23.9676 9.41401 22.6986V22.1678C8.87451 21.9954 8.35034 21.7778 7.84678 21.5172L7.47061 21.8934C6.55952 22.8056 5.1001 22.7789 4.21548 21.8931L3.10654 20.7842C2.22036 19.899 2.19487 18.44 3.10684 17.5291L3.48271 17.1532C3.22212 16.6496 3.00459 16.1255 2.83218 15.5859H2.30142C1.03247 15.5859 0 14.5535 0 13.2845V11.7155C0 10.4465 1.03247 9.41406 2.30147 9.41406H2.83223C3.00464 8.87451 3.22217 8.35039 3.48276 7.84683L3.10659 7.4707C2.19517 6.56025 2.22031 5.10117 3.10689 4.21558L4.21592 3.10659C5.10259 2.2187 6.56167 2.19653 7.471 3.10689L7.84683 3.48271C8.35039 3.22217 8.87456 3.00459 9.41406 2.83218V2.30142C9.41406 1.03242 10.4465 0 11.7155 0H13.2845C14.5535 0 15.5859 1.03242 15.5859 2.30142V2.83223C16.1254 3.00459 16.6496 3.22217 17.1532 3.48276L17.5293 3.10659C18.4404 2.19439 19.8999 2.22114 20.7845 3.10693L21.8934 4.21582C22.7796 5.10103 22.8051 6.55996 21.8931 7.47095L21.5172 7.84683C21.7778 8.35039 21.9954 8.87446 22.1678 9.41406H22.6985C23.9675 9.41406 25 10.4465 25 11.7155V13.2845C25 14.5535 23.9675 15.5859 22.6985 15.5859H22.1678C21.9954 16.1255 21.7778 16.6496 21.5172 17.1532L21.8934 17.5293C22.8048 18.4398 22.7797 19.8989 21.8931 20.7845L20.7841 21.8935C19.8974 22.7813 18.4383 22.8035 17.529 21.8932L17.1532 21.5173C16.6496 21.7779 16.1254 21.9955 15.5859 22.1679V22.6987C15.5859 23.9676 14.5535 25 13.2845 25ZM8.09165 19.979C8.79121 20.3927 9.54414 20.7053 10.3295 20.908C10.6529 20.9914 10.8789 21.2831 10.8789 21.6171V22.6986C10.8789 23.1599 11.2542 23.5352 11.7155 23.5352H13.2845C13.7458 23.5352 14.1211 23.1599 14.1211 22.6986V21.6171C14.1211 21.2831 14.3471 20.9914 14.6706 20.908C15.4559 20.7053 16.2088 20.3927 16.9084 19.979C17.1962 19.8088 17.5627 19.8551 17.7992 20.0916L18.5652 20.8576C18.8955 21.1883 19.4258 21.1806 19.748 20.858L20.8577 19.7483C21.1791 19.4273 21.1898 18.8968 20.858 18.5654L20.0917 17.7991C19.8552 17.5626 19.8089 17.1961 19.9791 16.9083C20.3928 16.2088 20.7053 15.4559 20.908 14.6705C20.9915 14.3471 21.2832 14.1211 21.6172 14.1211H22.6986C23.1599 14.1211 23.5352 13.7458 23.5352 13.2846V11.7155C23.5352 11.2542 23.1599 10.879 22.6986 10.879H21.6172C21.2832 10.879 20.9915 10.653 20.908 10.3296C20.7053 9.54419 20.3928 8.79126 19.9791 8.09175C19.8089 7.80396 19.8552 7.43745 20.0917 7.20103L20.8577 6.43496C21.1889 6.1042 21.1802 5.57393 20.858 5.2521L19.7484 4.14248C19.4268 3.82041 18.8963 3.81099 18.5655 4.14219L17.7992 4.90855C17.5628 5.14502 17.1962 5.19131 16.9084 5.02109C16.2089 4.60737 15.456 4.29482 14.6706 4.09214C14.3472 4.00869 14.1212 3.71699 14.1212 3.38296V2.30142C14.1212 1.84014 13.7458 1.46484 13.2846 1.46484H11.7156C11.2543 1.46484 10.879 1.84014 10.879 2.30142V3.38286C10.879 3.71689 10.653 4.00859 10.3295 4.09204C9.54419 4.29473 8.79126 4.60728 8.0917 5.021C7.80381 5.19116 7.43735 5.14487 7.20093 4.90845L6.43491 4.14238C6.10464 3.81172 5.57422 3.81938 5.2521 4.14204L4.14238 5.25171C3.821 5.57271 3.81025 6.10313 4.14209 6.43457L4.90845 7.20093C5.14487 7.43735 5.19116 7.80386 5.021 8.09165C4.60728 8.79116 4.29478 9.54409 4.09209 10.3295C4.00859 10.6529 3.71689 10.8789 3.38291 10.8789H2.30147C1.84019 10.8789 1.46484 11.2542 1.46484 11.7155V13.2845C1.46484 13.7458 1.84019 14.1211 2.30147 14.1211H3.38286C3.71689 14.1211 4.00855 14.3471 4.09204 14.6705C4.29473 15.4559 4.60728 16.2088 5.02095 16.9083C5.19111 17.1961 5.14482 17.5626 4.9084 17.799L4.14233 18.5651C3.81118 18.8959 3.81982 19.4261 4.14204 19.7479L5.25166 20.8576C5.57329 21.1796 6.10376 21.1891 6.43452 20.8579L7.20083 20.0915C7.37505 19.9173 7.7375 19.7695 8.09165 19.979Z"
    />
    <path
      d="M12.5 17.9395C9.50063 17.9395 7.06055 15.4993 7.06055 12.5C7.06055 9.50068 9.50063 7.06055 12.5 7.06055C15.4994 7.06055 17.9395 9.50068 17.9395 12.5C17.9395 15.4993 15.4994 17.9395 12.5 17.9395ZM12.5 8.52539C10.3083 8.52539 8.52539 10.3084 8.52539 12.5C8.52539 14.6916 10.3084 16.4746 12.5 16.4746C14.6916 16.4746 16.4746 14.6916 16.4746 12.5C16.4746 10.3084 14.6917 8.52539 12.5 8.52539Z"
    />
  </svg>

  <svg id="gear-current" viewBox="0 0 25 25">
    <path
      d="M13.2845 25H11.7155C10.4465 25 9.41401 23.9676 9.41401 22.6986V22.1678C8.87451 21.9954 8.35034 21.7778 7.84678 21.5172L7.47061 21.8934C6.55952 22.8056 5.1001 22.7789 4.21548 21.8931L3.10654 20.7842C2.22036 19.899 2.19487 18.44 3.10684 17.5291L3.48271 17.1532C3.22212 16.6496 3.00459 16.1255 2.83218 15.5859H2.30142C1.03247 15.5859 0 14.5535 0 13.2845V11.7155C0 10.4465 1.03247 9.41406 2.30147 9.41406H2.83223C3.00464 8.87451 3.22217 8.35039 3.48276 7.84683L3.10659 7.4707C2.19517 6.56025 2.22031 5.10117 3.10689 4.21558L4.21592 3.10659C5.10259 2.2187 6.56167 2.19653 7.471 3.10689L7.84683 3.48271C8.35039 3.22217 8.87456 3.00459 9.41406 2.83218V2.30142C9.41406 1.03242 10.4465 0 11.7155 0H13.2845C14.5535 0 15.5859 1.03242 15.5859 2.30142V2.83223C16.1254 3.00459 16.6496 3.22217 17.1532 3.48276L17.5293 3.10659C18.4404 2.19439 19.8999 2.22114 20.7845 3.10693L21.8934 4.21582C22.7796 5.10103 22.8051 6.55996 21.8931 7.47095L21.5172 7.84683C21.7778 8.35039 21.9954 8.87446 22.1678 9.41406H22.6985C23.9675 9.41406 25 10.4465 25 11.7155V13.2845C25 14.5535 23.9675 15.5859 22.6985 15.5859H22.1678C21.9954 16.1255 21.7778 16.6496 21.5172 17.1532L21.8934 17.5293C22.8048 18.4398 22.7797 19.8989 21.8931 20.7845L20.7841 21.8935C19.8974 22.7813 18.4383 22.8035 17.529 21.8932L17.1532 21.5173C16.6496 21.7779 16.1254 21.9955 15.5859 22.1679V22.6987C15.5859 23.9676 14.5535 25 13.2845 25Z"
      fill="#2B356D"
    />
    <path
      d="M12.502 17.9414C9.50259 17.9414 7.0625 15.5013 7.0625 12.502C7.0625 9.50264 9.50259 7.0625 12.502 7.0625C15.5013 7.0625 17.9414 9.50264 17.9414 12.502C17.9414 15.5013 15.5013 17.9414 12.502 17.9414ZM12.502 8.52734C10.3103 8.52734 8.52734 10.3104 8.52734 12.502C8.52734 14.6936 10.3104 16.4766 12.502 16.4766C14.6936 16.4766 16.4766 14.6936 16.4766 12.502C16.4766 10.3104 14.6936 8.52734 12.502 8.52734Z"
      fill="white"
    />
  </svg>

  <svg id="exit" viewBox="0 0 27 27">
    <path
      d="M0.25 1C0.25 0.585786 0.585786 0.25 1 0.25H19.0672C19.6169 0.25 20.0273 0.702167 20.0273 1.21598V7.58726C20.0273 8.00147 19.6915 8.33726 19.2773 8.33726C18.8631 8.33726 18.5273 8.00147 18.5273 7.58726V1.75H6.03609L12.4127 3.69234C12.8287 3.81907 13.0945 4.20295 13.0945 4.61687V22.7115H18.5273V16.8742C18.5273 16.46 18.8631 16.1242 19.2773 16.1242C19.6915 16.1242 20.0273 16.46 20.0273 16.8742V23.2455C20.0273 23.7593 19.6169 24.2115 19.0672 24.2115H13.0945V25.7839C13.0945 26.3771 12.5482 26.869 11.9218 26.7259L0.997473 24.2302C0.547289 24.1274 0.25 23.7258 0.25 23.2882V1ZM1.75 2.01248V22.8635L11.5945 25.1125V5.01118L1.75 2.01248ZM22.746 8.99343C23.0429 8.70461 23.5177 8.71118 23.8065 9.00809L26.5376 11.8158C26.8208 12.1069 26.8208 12.5705 26.5376 12.8617L23.8065 15.6694C23.5177 15.9663 23.0429 15.9728 22.746 15.684C22.449 15.3952 22.4425 14.9204 22.7313 14.6235L24.2242 13.0887H15.0756C14.6614 13.0887 14.3256 12.7529 14.3256 12.3387C14.3256 11.9245 14.6614 11.5887 15.0756 11.5887H24.2242L22.7313 10.054C22.4425 9.75707 22.449 9.28224 22.746 8.99343Z"
    />
  </svg>

  <svg id="crumbs-arrow" viewBox="0 0 9 14">
    <path
      d="M8.70726 0.292893C9.09778 0.683417 9.09778 1.31658 8.70726 1.70711L3.41436 7L8.70726 12.2929C9.09778 12.6834 9.09778 13.3166 8.70726 13.7071C8.31673 14.0976 7.68357 14.0976 7.29304 13.7071L0.585938 7L7.29304 0.292893C7.68357 -0.0976311 8.31673 -0.0976311 8.70726 0.292893Z"
    />
  </svg>
  
  <svg id="cross" viewBox="0 0 18 18">
    <path
      d="M9 0.25C9.41421 0.25 9.75 0.585786 9.75 1V8.25H17C17.4142 8.25 17.75 8.58579 17.75 9C17.75 9.41421 17.4142 9.75 17 9.75H9.75V17C9.75 17.4142 9.41421 17.75 9 17.75C8.58579 17.75 8.25 17.4142 8.25 17V9.75H1C0.585786 9.75 0.25 9.41421 0.25 9C0.25 8.58579 0.585786 8.25 1 8.25H8.25V1C8.25 0.585786 8.58579 0.25 9 0.25Z"
    />
  </svg>

  <svg id="search" viewBox="0 0 16 16">
    <path
      d="M15.8045 14.8619L11.2545 10.3119C12.1359 9.22325 12.6665 7.83992 12.6665 6.33328C12.6665 2.84132 9.82522 0 6.33325 0C2.84128 0 0 2.84128 0 6.33325C0 9.82522 2.84132 12.6665 6.33328 12.6665C7.83992 12.6665 9.22326 12.1359 10.3119 11.2545L14.8619 15.8045C14.9919 15.9345 15.1625 15.9998 15.3332 15.9998C15.5039 15.9998 15.6745 15.9345 15.8045 15.8045C16.0652 15.5438 16.0652 15.1225 15.8045 14.8619ZM6.33328 11.3332C3.57597 11.3332 1.33333 9.09057 1.33333 6.33325C1.33333 3.57593 3.57597 1.3333 6.33328 1.3333C9.0906 1.3333 11.3332 3.57593 11.3332 6.33325C11.3332 9.09057 9.09057 11.3332 6.33328 11.3332Z"
    />
  </svg>

  <svg id="close" viewBox="0 0 15 15">
    <path
      d="M0.292893 0.292893C0.683417 -0.0976311 1.31658 -0.0976311 1.70711 0.292893L7.5 6.08579L13.2929 0.292893C13.6834 -0.0976311 14.3166 -0.0976311 14.7071 0.292893C15.0976 0.683417 15.0976 1.31658 14.7071 1.70711L8.91421 7.5L14.7071 13.2929C15.0976 13.6834 15.0976 14.3166 14.7071 14.7071C14.3166 15.0976 13.6834 15.0976 13.2929 14.7071L7.5 8.91421L1.70711 14.7071C1.31658 15.0976 0.683417 15.0976 0.292893 14.7071C-0.0976311 14.3166 -0.0976311 13.6834 0.292893 13.2929L6.08579 7.5L0.292893 1.70711C-0.0976311 1.31658 -0.0976311 0.683417 0.292893 0.292893Z"
    />
  </svg>

  <svg id="arrow-prev" viewBox="0 0 11 18">
    <path
      d="M10.7071 0.292893C10.3166 -0.0976311 9.68342 -0.0976311 9.29289 0.292893L0.585786 9L9.29289 17.7071C9.68342 18.0976 10.3166 18.0976 10.7071 17.7071C11.0976 17.3166 11.0976 16.6834 10.7071 16.2929L3.41421 9L10.7071 1.70711C11.0976 1.31658 11.0976 0.683417 10.7071 0.292893Z"
    />
  </svg>

  <svg id="arrow-next" viewBox="0 0 11 18">
    <path
      d="M0.292893 0.292893C0.683417 -0.0976311 1.31658 -0.0976311 1.70711 0.292893L10.4142 9L1.70711 17.7071C1.31658 18.0976 0.683417 18.0976 0.292893 17.7071C-0.0976311 17.3166 -0.0976311 16.6834 0.292893 16.2929L7.58579 9L0.292893 1.70711C-0.0976311 1.31658 -0.0976311 0.683417 0.292893 0.292893Z"
    />
  </svg>

  <svg id="arrow-button" viewBox="0 0 16 10">
    <path
      d="M7.99992 6.58586L14.2928 0.292969L15.707 1.70718L7.99992 9.41429L0.292818 1.70718L1.70703 0.292969L7.99992 6.58586Z"
    />
  </svg>

  <svg id="star" viewBox="0 0 34 33">
    <path
      d="M16.049 0.927311C16.3483 0.00600046 17.6518 0.00600046 17.9511 0.927311L21.2658 11.1289C21.3997 11.541 21.7836 11.8199 22.2169 11.8199H32.9435C33.9122 11.8199 34.315 13.0595 33.5313 13.6289L24.8533 19.9339C24.5028 20.1885 24.3561 20.6399 24.49 21.0519L27.8047 31.2535C28.1041 32.1749 27.0496 32.941 26.2659 32.3716L17.5878 26.0666C17.2373 25.812 16.7628 25.812 16.4123 26.0666L7.73424 32.3716C6.95053 32.941 5.89605 32.1749 6.1954 31.2535L9.51011 21.0519C9.64399 20.6399 9.49733 20.1885 9.14684 19.9339L0.468819 13.6289C-0.314895 13.0595 0.0878809 11.8199 1.0566 11.8199H11.7832C12.2165 11.8199 12.6004 11.541 12.7343 11.1289L16.049 0.927311Z"
    />
  </svg>

  <svg id="checked" viewBox="0 0 21 16">
    <path
      d="M20.517 0.456713C20.8171 0.74227 20.8288 1.217 20.5433 1.51705L7.62791 15.0879L0.456713 7.55276C0.171156 7.25271 0.182904 6.77798 0.482954 6.49243C0.783004 6.20687 1.25773 6.21862 1.54329 6.51867L7.62791 12.9121L19.4567 0.482954C19.7423 0.182904 20.217 0.171156 20.517 0.456713Z"
    />
  </svg>

  <svg id="phone" viewBox="0 0 28 28">
    <path
      d="M23.5708 16.6909C22.9596 16.0574 22.2225 15.7186 21.4412 15.7186C20.6663 15.7186 19.9228 16.0511 19.2865 16.6846L17.2955 18.6604C17.1317 18.5726 16.9679 18.491 16.8104 18.4095C16.5836 18.2966 16.3693 18.19 16.1866 18.0771C14.3217 16.8979 12.6269 15.3611 11.0013 13.3728C10.2138 12.3817 9.68454 11.5475 9.30021 10.7007C9.81685 10.2303 10.2957 9.74104 10.7619 9.27061C10.9383 9.09498 11.1147 8.91308 11.2912 8.73746C12.6143 7.42025 12.6143 5.71416 11.2912 4.39695L9.57113 2.68459C9.37582 2.49014 9.1742 2.28943 8.98519 2.08871C8.60716 1.69982 8.21023 1.29839 7.8007 0.922043C7.18956 0.319892 6.4587 0 5.69005 0C4.92139 0 4.17793 0.319892 3.54789 0.922043C3.54159 0.928315 3.54159 0.928315 3.53529 0.934588L1.39313 3.08602C0.586667 3.88889 0.126733 4.86738 0.0259255 6.00269C-0.125286 7.83423 0.416554 9.54032 0.832385 10.6568C1.85306 13.3979 3.37777 15.9382 5.65224 18.6604C8.41185 21.9409 11.7322 24.5314 15.5251 26.3566C16.9742 27.0403 18.9084 27.8495 21.0695 27.9875C21.2018 27.9937 21.3404 28 21.4664 28C22.9218 28 24.1441 27.4794 25.1018 26.4444C25.1081 26.4319 25.1207 26.4256 25.127 26.4131C25.4546 26.0179 25.8326 25.6604 26.2296 25.2778C26.5005 25.0206 26.7777 24.7509 27.0486 24.4686C27.6724 23.8226 28 23.0699 28 22.2984C28 21.5206 27.6661 20.7742 27.0297 20.147L23.5708 16.6909Z"
    />
    <path
      d="M16.8104 18.4095C16.8638 18.4372 16.9179 18.4648 16.9725 18.4927C17.079 18.5471 17.1872 18.6024 17.2955 18.6604L19.2865 16.6846C19.9228 16.0511 20.6663 15.7186 21.4412 15.7186C22.2225 15.7186 22.9596 16.0574 23.5708 16.6909L27.0297 20.147C27.6661 20.7742 28 21.5206 28 22.2984C28 23.0699 27.6724 23.8226 27.0486 24.4686C26.7777 24.7509 26.5005 25.0206 26.2296 25.2778C26.2002 25.3061 26.1709 25.3343 26.1417 25.3624C25.7769 25.7136 25.4303 26.0472 25.127 26.4131C25.1238 26.4194 25.1191 26.4241 25.1144 26.4288C25.1097 26.4335 25.1049 26.4382 25.1018 26.4444C24.1441 27.4794 22.9218 28 21.4664 28C21.3404 28 21.2018 27.9937 21.0695 27.9875C18.9084 27.8495 16.9742 27.0403 15.5251 26.3566C11.7322 24.5314 8.41185 21.9409 5.65224 18.6604C3.37777 15.9382 1.85306 13.3979 0.832385 10.6568C0.416554 9.54032 -0.125286 7.83423 0.0259255 6.00269C0.126733 4.86738 0.586667 3.88889 1.39313 3.08602L3.53529 0.934588L3.54789 0.922043C4.17793 0.319892 4.92139 0 5.69005 0C6.4587 0 7.18956 0.319892 7.8007 0.922043C8.21023 1.29839 8.60716 1.69982 8.98519 2.08871C9.1742 2.28943 9.37582 2.49014 9.57113 2.68459L11.2912 4.39695C12.6143 5.71416 12.6143 7.42025 11.2912 8.73746C11.203 8.82527 11.1147 8.91465 11.0265 9.00403C10.9383 9.09342 10.8501 9.1828 10.7619 9.27061C10.7169 9.31599 10.6718 9.36155 10.6266 9.40725C10.2029 9.83526 9.76701 10.2757 9.30021 10.7007C9.68454 11.5475 10.2138 12.3817 11.0013 13.3728C12.6269 15.3611 14.3217 16.8979 16.1866 18.0771C16.3693 18.19 16.5836 18.2966 16.8104 18.4095ZM6.81684 17.7147C9.43825 20.8254 12.5828 23.2752 16.1705 25.0026C17.5798 25.6672 19.2947 26.3686 21.1532 26.4897C21.1591 26.49 21.1649 26.4903 21.1707 26.4906L21.2326 25.5581C21.2979 25.5624 21.3733 25.5627 21.4727 25.5627C22.2519 25.5627 22.7982 25.3254 23.2834 24.8142C23.6958 24.3325 24.1292 23.9084 24.538 23.5201C24.5883 23.4712 24.6371 23.424 24.6846 23.3781C24.8856 23.1834 25.0636 23.0111 25.2383 22.8263C25.2639 22.7945 25.2907 22.7666 25.3177 22.7421C25.5314 22.511 25.5577 22.3681 25.5575 22.3065C25.5574 22.2456 25.5313 22.1009 25.2935 21.8665L25.2909 21.864L21.7945 18.3831L21.7828 18.3703C21.7238 18.306 21.6538 18.2463 21.5832 18.206C21.5145 18.1667 21.464 18.1559 21.4286 18.1559C21.3939 18.1559 21.3364 18.1673 21.2525 18.2146C21.168 18.2622 21.0829 18.3317 21.0064 18.4079L18.8453 20.5593C18.7138 20.6905 18.1987 21.2043 17.3648 21.2043C17.0262 21.2043 16.7109 21.1202 16.4069 20.9689C16.379 20.9551 16.356 20.9419 16.3405 20.9327C16.3292 20.9261 16.3186 20.9195 16.312 20.9154L16.3005 20.9097L16.2712 20.8916C16.1235 20.8003 15.9424 20.7095 15.7075 20.5926L15.6954 20.5866C15.4503 20.4645 15.157 20.3186 14.8664 20.1351L15.3709 19.336C13.3555 18.0593 11.5475 16.4108 9.84003 14.3222L9.83346 14.3141L9.82699 14.306C8.98687 13.2488 8.38316 12.3096 7.93432 11.3207L7.81557 11.059L6.9194 11.3591L6.8967 11.2913C6.82892 11.0776 6.73813 10.7356 6.7848 10.3342C6.83238 9.92503 7.01466 9.51685 7.37602 9.14378C7.41637 9.09672 7.45128 9.06693 7.4657 9.05463C7.4675 9.05309 7.46941 9.05147 7.47104 9.0501C8.00014 8.57785 8.49055 8.09006 9.01687 7.5536L9.02457 7.54576L9.03249 7.53814C9.1481 7.42702 9.25613 7.31819 9.37167 7.2018C9.4332 7.13981 9.49686 7.07568 9.56493 7.00792C9.82767 6.74634 9.84496 6.6066 9.84496 6.56721C9.84496 6.52781 9.82767 6.38807 9.56493 6.1265L7.83672 4.40599C7.73869 4.30534 7.64042 4.20584 7.54053 4.10484L7.53913 4.10342C7.43945 4.00262 7.3381 3.90012 7.23799 3.79724C6.85509 3.40355 6.50041 3.0446 6.13058 2.70057L6.12128 2.69191L6.09337 2.66413C6.02575 2.59681 5.95117 2.53689 5.87652 2.49615C5.80404 2.45659 5.74754 2.44355 5.70265 2.44355C5.63396 2.44355 5.4833 2.47797 5.26498 2.6795L3.12566 4.80929C2.72877 5.20441 2.52246 5.64684 2.47441 6.20356C2.39223 7.2047 2.57303 8.30606 3.13491 9.80376L3.1357 9.80586C4.05167 12.2698 5.43927 14.5807 7.54519 17.1077L6.81684 17.7147ZM26.3918 22.811C26.3096 23.0065 26.1749 23.214 25.9695 23.4268L25.9683 23.4281L25.8263 23.2957V22.5484C25.8919 22.5488 25.9658 22.5578 26.0447 22.5823C26.1618 22.6188 26.2891 22.6907 26.3918 22.811ZM25.9633 23.4333C25.9641 23.4324 25.965 23.4315 25.9659 23.4306L25.8263 23.2957L25.9633 23.4333Z"
    />
  </svg>

  <svg id="bell" viewBox="0 0 38 40">
    <path
      d="M34.219 33.75H3.28148C1.47182 33.75 0 32.2782 0 30.4689C0 29.5086 0.418167 28.5995 1.14773 27.975C3.99937 25.5655 5.625 22.0633 5.625 18.3527V13.1249C5.625 5.88764 11.5126 0 18.7502 0C25.9875 0 31.8751 5.88764 31.8751 13.1249V18.3527C31.8751 22.0633 33.5007 25.5655 36.3338 27.9619C37.0819 28.5995 37.5001 29.5086 37.5001 30.4689C37.5001 32.2782 36.0283 33.75 34.219 33.75ZM18.7502 2.8125C13.0631 2.8125 8.4375 7.43809 8.4375 13.1249V18.3527C8.4375 22.8917 6.44829 27.1781 2.98141 30.1087C2.91584 30.165 2.8125 30.2814 2.8125 30.4689C2.8125 30.7236 3.02639 30.9375 3.28148 30.9375H34.219C34.4737 30.9375 34.6876 30.7236 34.6876 30.4689C34.6876 30.2814 34.5846 30.165 34.5225 30.1125C31.0518 27.1781 29.0626 22.8917 29.0626 18.3527V13.1249C29.0626 7.43809 24.437 2.8125 18.7502 2.8125Z"
    />
    <path
      d="M18.7539 39.375C14.8764 39.375 11.7227 36.2212 11.7227 32.3438C11.7227 31.5675 12.3527 30.9375 13.1289 30.9375C13.9052 30.9375 14.5352 31.5675 14.5352 32.3438C14.5352 34.6708 16.4269 36.5625 18.7539 36.5625C21.0806 36.5625 22.9727 34.6708 22.9727 32.3438C22.9727 31.5675 23.6027 30.9375 24.3789 30.9375C25.1552 30.9375 25.7852 31.5675 25.7852 32.3438C25.7852 36.2212 22.6314 39.375 18.7539 39.375Z"
    />
  </svg>

  <svg id="trash" viewBox="0 0 23 25">
    <path
      d="M22.2395 10.2946H0.760484C0.306048 10.2946 0 10.0013 0 9.55682V6.6146C0 5.44127 1.06653 4.41016 2.3 4.41016H20.7C21.9335 4.41016 23 5.44127 23 6.6146V9.55682C23 9.85015 22.694 10.2946 22.2395 10.2946ZM1.53024 8.82793H21.4698V6.6146C21.4698 6.17904 21.1637 5.88571 20.7 5.88571H2.3C1.83629 5.88571 1.53024 6.17904 1.53024 6.6146V8.82793Z"
    />
    <path
      d="M17.6395 25.0009H5.36052C3.21818 25.0009 1.53027 23.3831 1.53027 21.3209V9.56092C1.53027 9.12536 1.83632 8.83203 2.30003 8.83203C2.75447 8.83203 3.06052 9.12536 3.06052 9.56092V21.3209C3.06052 22.5031 4.13632 23.5254 5.36052 23.5254H17.6395C18.8637 23.5254 19.9395 22.5031 19.9395 21.3209V9.56092C19.9395 9.12536 20.2456 8.83203 20.7 8.83203C21.1637 8.83203 21.4698 9.12536 21.4698 9.56092V21.3209C21.4698 23.3831 19.7819 25.0009 17.6395 25.0009Z"
    />
    <path
      d="M15.3285 5.14666H13.7982V2.20444C13.7982 1.76889 13.4922 1.47555 13.0285 1.47555H9.96797C9.50426 1.47555 9.19821 1.76889 9.19821 2.20444V5.14666H7.66797V2.20444C7.66797 1.03111 8.7345 0 9.96797 0H13.0285C14.2619 0 15.3285 1.03111 15.3285 2.20444V5.14666Z"
    />
    <path
      d="M6.89769 20.5855C6.43398 20.5855 6.12793 20.2921 6.12793 19.8477V13.9633C6.12793 13.5277 6.43398 13.2344 6.89769 13.2344C7.35212 13.2344 7.66745 13.5277 7.66745 13.9633V19.8477C7.66745 20.2921 7.35212 20.5855 6.89769 20.5855Z"
    />
    <path
      d="M11.5002 20.5855C11.0365 20.5855 10.7305 20.2921 10.7305 19.8477V13.9633C10.7305 13.5277 11.0365 13.2344 11.5002 13.2344C11.9639 13.2344 12.27 13.5277 12.27 13.9633V19.8477C12.27 20.2921 11.9639 20.5855 11.5002 20.5855Z"
    />
    <path
      d="M16.1018 20.5855C15.6474 20.5855 15.332 20.2921 15.332 19.8477V13.9633C15.332 13.5277 15.6474 13.2344 16.1018 13.2344C16.5655 13.2344 16.8715 13.5277 16.8715 13.9633V19.8477C16.8715 20.2921 16.5655 20.5855 16.1018 20.5855Z"
    />
  </svg>

  <svg id="arrow-move" viewBox="0 0 32 32">
    <path
      d="M20.293 23.293 17 26.586V5.414l3.293 3.293a1 1 0 0 0 1.414-1.414l-5-5a.99.99 0 0 0-.326-.217 1 1 0 0 0-.764 0 .99.99 0 0 0-.326.217l-5 5a1 1 0 0 0 1.414 1.414L15 5.414v21.172l-3.293-3.293a1 1 0 0 0-1.414 1.414l5 5a1 1 0 0 0 1.416 0l5-5a1 1 0 0 0-1.414-1.414z"
    ></path>
  </svg>

  <svg id="pen-edit" viewBox="0 0 31 31">
    <path
      d="M0.892578 30L3.12734 22.6196L19.3124 6.33621L21.7504 3.88348L24.2081 1.41081C24.9838 0.630408 26.2442 0.623173 27.0288 1.39462L29.4609 3.78591C30.2507 4.56247 30.2589 5.83305 29.4793 6.61981L26.8971 9.22551L24.5269 11.6173L8.40951 27.8815L0.892578 30Z"
      fill="white"
    />
    <path
      d="M3.12734 22.6196L0.892578 30L8.40951 27.8815M3.12734 22.6196L8.40951 27.8815M3.12734 22.6196L19.3124 6.33621M8.40951 27.8815L24.5269 11.6173M26.8971 9.22551L29.4793 6.61981C30.2589 5.83305 30.2507 4.56247 29.4609 3.78591L27.0288 1.39462C26.2442 0.623173 24.9838 0.630408 24.2081 1.41081L21.7504 3.88348M26.8971 9.22551L21.7504 3.88348M26.8971 9.22551L24.5269 11.6173M21.7504 3.88348L19.3124 6.33621M19.3124 6.33621L24.5269 11.6173"
      stroke-width="1.5"
      stroke-linejoin="round"
    />
  </svg>

  <svg id="plus" viewBox="0 0 14 14">
    <path
      d="M7 1V7M7 13V7M7 7H13M7 7H1.75H1"
      stroke-width="1.5"
      stroke-linecap="round"
    />
  </svg>

  <svg id="clock" viewBox="0 0 13 13" fill="transparent">
    <circle cx="6.5" cy="6.5" r="6" />
    <path d="M6.5 4V7H8.5" stroke-linecap="round" />
  </svg>

  <svg id="filter" viewBox="0 0 34 34">
    <path
      d="M33.7754 28.1364C33.7754 28.5484 33.441 28.8828 33.029 28.8828H20.7562C20.3442 28.8828 20.0098 28.5484 20.0098 28.1364C20.0098 27.7244 20.3442 27.39 20.7562 27.39H33.029C33.441 27.39 33.7754 27.724 33.7754 28.1364Z"
    />
    <path
      d="M22.3397 5.89831C22.3397 6.31032 22.0053 6.64471 21.5933 6.64471L0.933906 6.64471C0.52189 6.64471 0.1875 6.31032 0.1875 5.89831C0.1875 5.48629 0.52189 5.1519 0.933906 5.1519L21.5933 5.1519C22.0057 5.1519 22.3397 5.48629 22.3397 5.89831Z"
    />
    <path
      d="M33.7754 17.0192C33.7754 17.4312 33.441 17.7656 33.029 17.7656H10.6077C10.1957 17.7656 9.86133 17.4312 9.86133 17.0192C9.86133 16.6072 10.1957 16.2728 10.6077 16.2728H33.029C33.441 16.2728 33.7754 16.6072 33.7754 17.0192Z"
    />
    <path
      d="M11.3539 17.0164C11.3539 19.0556 9.69503 20.7148 7.65547 20.7148C5.61592 20.7148 3.95703 19.056 3.95703 17.0164C3.95703 14.9768 5.61592 13.318 7.65547 13.318C9.69503 13.318 11.3539 14.9768 11.3539 17.0164ZM5.45022 17.0164C5.45022 18.2327 6.43958 19.222 7.65585 19.222C8.87212 19.222 9.86148 18.2327 9.86148 17.0164C9.86148 15.8001 8.87212 14.8108 7.65585 14.8108C6.43958 14.8108 5.45022 15.8001 5.45022 17.0164Z"
    />
    <path
      d="M21.5024 28.1375C21.5024 30.1767 19.8435 31.8359 17.8039 31.8359C15.7647 31.8359 14.1055 30.177 14.1055 28.1375C14.1055 26.0979 15.7644 24.4391 17.8039 24.4391C19.8435 24.4391 21.5024 26.0983 21.5024 28.1375ZM15.5983 28.1375C15.5983 29.3538 16.5876 30.3431 17.8039 30.3431C19.0202 30.3431 20.0095 29.3538 20.0095 28.1375C20.0095 26.9212 19.0202 25.9319 17.8039 25.9319C16.5876 25.9319 15.5983 26.9212 15.5983 28.1375Z"
    />
    <path
      d="M28.2442 5.89959C28.2442 7.93877 26.5853 9.59766 24.5457 9.59766C22.5065 9.59766 20.8477 7.93877 20.8477 5.89959C20.8477 3.86003 22.5065 2.20114 24.5457 2.20114C26.5849 2.20114 28.2442 3.86003 28.2442 5.89959ZM22.3401 5.89959C22.3401 7.11586 23.3291 8.10484 24.5454 8.10484C25.7616 8.10484 26.751 7.11586 26.751 5.89959C26.751 4.68332 25.7616 3.69396 24.5454 3.69396C23.3291 3.69396 22.3401 4.68332 22.3401 5.89959Z"
    />
    <path
      d="M15.5989 28.1364C15.5989 28.5484 15.2645 28.8828 14.8525 28.8828H0.933906C0.52189 28.8828 0.1875 28.5484 0.1875 28.1364C0.1875 27.7244 0.52189 27.39 0.933906 27.39H14.8525C15.2649 27.39 15.5989 27.724 15.5989 28.1364Z"
    />
    <path
      d="M5.45078 17.0192C5.45078 17.4312 5.11639 17.7656 4.70438 17.7656H0.933906C0.52189 17.7656 0.1875 17.4312 0.1875 17.0192C0.1875 16.6072 0.52189 16.2728 0.933906 16.2728H4.70438C5.11639 16.2728 5.45078 16.6072 5.45078 17.0192Z"
    />
    <path
      d="M33.7748 5.89812C33.7748 6.31014 33.4404 6.64453 33.0284 6.64453H27.4964C27.0844 6.64453 26.75 6.31014 26.75 5.89812C26.75 5.48611 27.0844 5.15172 27.4964 5.15172H33.0284C33.4404 5.15172 33.7748 5.48611 33.7748 5.89812Z"
    />
  </svg>

  <svg id="button-arrow" viewBox="0 0 21 10" >
    <path
      d="M1.5 5H19M19 5L15 1M19 5L15 9"
      stroke-width="2"
      stroke-linecap="round"
    />
  </svg>

</svg>
