<svg width="142" height="93" viewBox="0 0 142 93" fill="none" xmlns="http://www.w3.org/2000/svg">
<path fill-rule="evenodd" clip-rule="evenodd" d="M107.085 92.5952C107.834 92.6435 108.589 92.668 109.351 92.668C127.383 92.668 142 78.9161 142 61.9522C142 44.9883 127.383 31.2363 109.351 31.2363C108.479 31.2363 107.614 31.2685 106.759 31.3317L106.759 31.2365C106.759 13.985 91.9097 0 73.5916 0C59.3423 0 47.1916 8.46236 42.4969 20.3418C41.0034 19.9769 39.4406 19.7832 37.8314 19.7832C27.719 19.7832 19.4348 27.4343 18.708 37.1369C7.79135 41.15 0 51.6783 0 64.0347C0 79.8485 12.7615 92.6681 28.5036 92.6681C29.1928 92.6681 29.8762 92.6436 30.5532 92.5952H107.085Z" fill="#C64692"/>
<path fill-rule="evenodd" clip-rule="evenodd" d="M72.1332 34.69C71.3389 33.5291 69.6262 33.5291 68.8319 34.69L50.1829 61.9464C49.2747 63.2738 50.2252 65.0758 51.8335 65.0758H61.1543V92.6681H79.8112V65.0758H89.1316C90.7399 65.0758 91.6904 63.2738 90.7822 61.9464L72.1332 34.69Z" fill="white"/>
</svg>
